<svg width="15" height="15" viewBox="0 0 15 15" fill="none" xmlns="http://www.w3.org/2000/svg">
<g clip-path="url(#clip0)">
<path d="M7.50002 5.45453C6.37159 5.45453 5.45456 6.37156 5.45456 7.49998C5.45456 8.6284 6.37159 9.54543 7.50002 9.54543C8.62844 9.54543 9.54547 8.6284 9.54547 7.49998C9.54547 6.37156 8.6284 5.45453 7.50002 5.45453Z" fill="#EF7F1A"/>
<path d="M7.50002 2.38635C4.09091 2.38635 1.17956 4.50679 0 7.49999C1.17956 10.4932 4.09091 12.6136 7.50002 12.6136C10.9125 12.6136 13.8205 10.4932 15 7.49999C13.8205 4.50679 10.9125 2.38635 7.50002 2.38635ZM7.50002 10.9091C5.6182 10.9091 4.09091 9.38178 4.09091 7.49996C4.09091 5.61814 5.6182 4.09089 7.50002 4.09089C9.38184 4.09089 10.9091 5.61817 10.9091 7.49999C10.9091 9.38181 9.38184 10.9091 7.50002 10.9091Z" fill="#EF7F1A"/>
</g>
<defs>
<clipPath id="clip0">
<rect width="15" height="15" fill="white"/>
</clipPath>
</defs>
</svg>
