<svg width="347" height="100" viewBox="0 0 347 100" fill="none" xmlns="http://www.w3.org/2000/svg">
<path fill-rule="evenodd" clip-rule="evenodd" d="M66.4378 52.2693V79.4212H77.3228V50.9685C77.3228 47.5014 78.5882 44 80.3403 41.4728L82.2299 39.1347C83.4896 37.788 85.6082 36.5043 87.2286 35.6848C91.5803 33.4842 96.6821 33.6275 101.154 35.404C102.322 35.8682 102.717 36.149 103.708 36.7507C104.24 37.0774 104.389 37.1576 104.87 37.5415C105.254 37.8395 105.615 38.1089 105.952 38.4069C108.644 40.7851 110.751 44.2808 111.489 48.6361C111.747 50.1719 111.655 73.5301 111.598 77.788C111.587 78.5387 111.381 79.4098 112.091 79.4098H122.489V51.1289C122.489 47.3524 123.691 44.2693 125.541 41.5014C126.457 40.1318 128.381 38.1777 129.732 37.2436C135.87 33.0029 143.898 32.9054 149.847 37.404C150.288 37.7364 150.655 37.9713 151.038 38.3266C153.117 40.2636 154.336 41.9255 155.573 44.6819C156.455 46.6476 156.924 49.3181 156.924 52.1089V79.4212H167.643V50.4814C167.643 45.8166 165.886 40.6648 163.818 37.2436C163.343 36.4527 162.977 35.9083 162.484 35.1691C159.948 31.3696 155.31 27.6734 151.078 25.7765C142.323 21.8453 131.066 22.8195 123.582 28.4928C122.758 29.1175 121.859 29.7307 121.155 30.447C120.685 30.9226 120.485 31.0143 120.015 31.4212C119.534 31.8453 119.46 32.1146 119.042 32.5616C118.612 33.0258 118.452 33.1289 118.034 33.6676C117.713 34.086 117.33 34.6304 116.969 34.8768C116.734 33.9885 113.677 30.9169 113.024 30.3725C101.234 20.4928 85.4135 20.9685 74.4484 31.8281C72.3584 33.9026 69.9421 37.5358 68.7912 40.3095C67.331 43.788 66.4378 47.4155 66.4378 52.2693Z" fill="#D57E2A"/>
<path fill-rule="evenodd" clip-rule="evenodd" d="M289.955 51.7822V79.4212H300.353C300.725 79.4212 300.84 79.3066 300.84 78.9341V70.808H309.612C312.658 70.808 315.252 69.3181 316.804 67.7593C318.905 65.6447 320.01 63.2665 320.01 60.0745H300.84V50.1547C300.84 47.9312 301.75 45.2493 302.517 43.702C305.151 38.3897 310.831 34.0573 317.41 34.0573C321.384 34.0573 324.333 34.8138 327.454 36.8481L329.641 38.5616C335.705 44.4069 335.121 49.2779 335.121 56.4871L335.115 77.9542C335.104 78.6762 334.926 79.4097 335.607 79.4097H346.006V51.9427C346.006 44.4756 343.784 38.9628 339.604 33.639C339.278 33.2206 339.089 33.106 338.768 32.6877C338.407 32.2235 338.333 32.1375 337.926 31.7421C326.675 20.596 309.331 20.5158 298.126 31.6619C292.938 36.8195 289.955 44.1203 289.955 51.7822Z" fill="#D57E2A"/>
<path fill-rule="evenodd" clip-rule="evenodd" d="M0 52.7564C0 59.3524 3.29813 66.0287 7.67845 70.596C7.85023 70.7736 7.89604 70.8424 8.06209 71.0258C8.085 71.0487 8.11935 71.0888 8.14225 71.1117L10.3467 73.1289C11.0567 73.702 11.5549 74.063 12.3164 74.5731C23.6538 82.1261 38.1632 80.6533 47.3133 71.49C51.247 67.553 53.3827 64.063 54.9631 58.6648C55.4212 57.1003 55.8792 54.5043 55.8792 52.5903V23.3295H45.1603V50.9685C45.1603 56.4986 43.036 60.659 40.2475 63.4441C28.8529 74.808 10.7246 66.3553 10.7246 51.4556V23.3295H0V52.7564Z" fill="#D57E2A"/>
<path fill-rule="evenodd" clip-rule="evenodd" d="M178.196 51.7822V79.4212H189.081V50.6418C189.081 48.0401 189.849 45.8223 190.656 43.9255C191.028 43.0602 191.698 42.0229 192.236 41.2779C201.106 28.9857 220.522 32.9799 223.219 48.6648C223.546 50.5616 223.414 73.2894 223.351 77.7937C223.339 78.5444 223.133 79.4155 223.843 79.4155H234.242V50.808C234.242 48.4527 234.992 45.7077 235.81 44.086C236.721 42.2808 238.17 39.9255 239.79 38.6361C243.38 35.7765 246.031 34.063 251.625 34.063C256.865 34.063 260.655 36.2063 264.016 39.5473C267.452 42.9627 268.683 47.914 268.683 52.9226V79.4212H279.402V50.6418C279.402 43.6963 276.625 38.2521 272.811 33.341C272.239 32.6017 271.718 32.149 271.076 31.5014C264.108 24.5215 253.853 21.6562 244.021 24.3381C239.658 25.5301 234.923 28.2579 231.762 31.4155L229.787 33.6619C229.46 34.0802 229.088 34.6246 228.722 34.8711C228.315 33.3582 223.557 29.3582 222.389 28.5272C209.214 19.2034 191.538 23.0258 183.206 35.4842C180.051 40.1948 178.196 45.3467 178.196 51.7822Z" fill="#D57E2A"/>
<path d="M44.6736 0.148994H46.5803V14.745H44.6736V0.148994ZM45.6699 0.148994H50.9377V1.95415H45.6699V0.148994ZM45.6699 6.59599H50.4339V8.40114H45.6699V6.59599ZM45.6699 12.9398H50.9377V14.745H45.6699V12.9398Z" fill="#D57E2A"/>
<path d="M51.5332 12.9398H59.9045V14.745H51.5332V12.9398ZM51.5332 12.9398H53.44V17.765H51.5332V12.9398ZM51.8138 12.9398H52.0543C52.4952 12.9398 52.8387 12.6991 53.085 12.2235C53.3312 11.7478 53.4514 11.0716 53.4514 10.2006V0.148994H55.3581V10.3782C55.3581 11.1691 55.2379 11.8453 54.9917 12.4126C54.7455 12.9799 54.3962 13.4097 53.9324 13.702C53.4686 13.9943 52.9132 14.1433 52.2547 14.1433H51.8138V12.9398ZM54.7226 0.148994H58.5017V1.95415H54.7226V0.148994ZM57.763 0.148994H59.6698V14.745H57.763V0.148994ZM59.2174 12.9398H61.1241V17.765H59.2174V12.9398Z" fill="#D57E2A"/>
<path d="M67.749 14.7335V4.06304L67.9895 4.32665L64.01 14.7335H62.4239V0.148995H64.2619V10.8883L64.0215 10.6246L68.0239 0.143265H69.587V14.7278H67.749V14.7335Z" fill="#D57E2A"/>
<path d="M71.5911 0.148994H73.5093V14.745H71.5911V0.148994ZM72.868 6.65329H77.34V8.45845H72.868V6.65329ZM76.4066 0.148994H78.3134V14.745H76.4066V0.148994Z" fill="#D57E2A"/>
<path d="M80.3174 0.148994H82.2242V14.745H80.3174V0.148994ZM81.308 0.148994H86.5759V1.95415H81.308V0.148994ZM81.308 6.59599H86.072V8.40114H81.308V6.59599ZM81.308 12.9398H86.5759V14.745H81.308V12.9398Z" fill="#D57E2A"/>
<path d="M88.0817 0.148994H89.9999V14.745H88.0817V0.148994ZM89.3529 6.65329H93.8248V8.45845H89.3529V6.65329ZM92.8915 0.148994H94.7982V14.745H92.8915V0.148994Z" fill="#D57E2A"/>
<path d="M102.127 14.7335V4.06304L102.368 4.32665L98.3884 14.7335H96.8023V0.148995H98.6403V10.8883L98.3998 10.6246L102.402 0.143265H103.965V14.7278H102.127V14.7335Z" fill="#D57E2A"/>
<path d="M105.97 0.148994H107.876V14.745H105.97V0.148994ZM106.966 0.148994H112.234V1.95415H106.966V0.148994ZM106.966 6.59599H111.73V8.40114H106.966V6.59599ZM106.966 12.9398H112.234V14.745H106.966V12.9398Z" fill="#D57E2A"/>
<path d="M113.413 12.8367H115.32V14.745H113.413V12.8367Z" fill="#D57E2A"/>
<path d="M120.009 0.148994H121.916V14.745H120.009V0.148994ZM121.286 0.148994H125.77V1.95415H121.286V0.148994ZM124.825 0.148994H126.732V14.745H124.825V0.148994Z" fill="#D57E2A"/>
<path d="M128.736 0.148994H130.642V14.745H128.736V0.148994ZM129.789 7.27793H132.549C132.813 7.27793 133.036 7.2149 133.225 7.09455C133.414 6.97421 133.563 6.80229 133.66 6.57306C133.763 6.34384 133.809 6.0745 133.809 5.75931V3.52435C133.809 3.19771 133.757 2.9169 133.66 2.68195C133.563 2.44699 133.414 2.26934 133.225 2.14326C133.036 2.01719 132.807 1.95988 132.549 1.95988H129.789V0.148994H132.509C133.196 0.148994 133.786 0.2808 134.267 0.538679C134.754 0.80229 135.12 1.18051 135.378 1.68481C135.63 2.18911 135.761 2.79083 135.761 3.48997V5.81089C135.761 6.49857 135.63 7.08882 135.378 7.57593C135.12 8.06304 134.748 8.43553 134.267 8.69341C133.78 8.95129 133.196 9.07736 132.515 9.07736H129.795V7.27793H129.789Z" fill="#D57E2A"/>
<path d="M139.174 14.4642C138.63 14.1776 138.218 13.7593 137.937 13.2092C137.651 12.659 137.514 12 137.514 11.2321V3.66189C137.514 2.88825 137.657 2.2235 137.937 1.67335C138.224 1.12321 138.636 0.710602 139.174 0.424069C139.718 0.137536 140.365 0 141.132 0C141.9 0 142.547 0.143266 143.091 0.424069C143.635 0.710602 144.047 1.12321 144.327 1.67335C144.614 2.2235 144.751 2.88252 144.751 3.66189V11.2321C144.751 12 144.608 12.659 144.327 13.2092C144.041 13.7593 143.629 14.1776 143.091 14.4642C142.552 14.7507 141.9 14.894 141.132 14.894C140.365 14.894 139.718 14.7507 139.174 14.4642ZM142.06 12.8309C142.318 12.6934 142.512 12.4928 142.644 12.235C142.776 11.9713 142.844 11.6619 142.844 11.2894V3.60458C142.844 3.23782 142.776 2.92264 142.644 2.65903C142.512 2.39542 142.312 2.20057 142.06 2.06304C141.802 1.9255 141.493 1.85673 141.132 1.85673C140.772 1.85673 140.462 1.9255 140.205 2.06304C139.947 2.20057 139.752 2.40115 139.621 2.65903C139.489 2.92264 139.42 3.23209 139.42 3.60458V11.2894C139.42 11.6562 139.489 11.9713 139.621 12.235C139.752 12.4986 139.947 12.6934 140.205 12.8309C140.462 12.9685 140.772 13.0372 141.132 13.0372C141.493 13.0372 141.802 12.9685 142.06 12.8309Z" fill="#D57E2A"/>
<path d="M148.324 14.4527C147.815 14.1605 147.431 13.7307 147.162 13.1748C146.893 12.6189 146.761 11.9427 146.761 11.1633V3.74212C146.761 2.95129 146.893 2.2808 147.162 1.7192C147.431 1.16332 147.815 0.733524 148.318 0.441261C148.822 0.148997 149.435 0 150.151 0C150.866 0 151.479 0.148997 151.989 0.441261C152.498 0.733524 152.882 1.16332 153.145 1.7192C153.409 2.2808 153.54 2.95129 153.54 3.73066V4.3553H151.617V3.73639C151.617 3.34097 151.559 3.00286 151.445 2.72206C151.33 2.44126 151.164 2.22923 150.941 2.08023C150.718 1.93123 150.454 1.85673 150.151 1.85673C149.847 1.85673 149.578 1.93123 149.361 2.08023C149.143 2.22923 148.977 2.44126 148.857 2.72206C148.742 3.00286 148.679 3.3467 148.679 3.74785V11.1633C148.679 11.5587 148.736 11.8968 148.857 12.1776C148.971 12.4585 149.143 12.6705 149.361 12.8195C149.578 12.9685 149.842 13.043 150.151 13.043C150.46 13.043 150.723 12.9685 150.941 12.8195C151.158 12.6705 151.33 12.4585 151.445 12.1776C151.559 11.8968 151.617 11.5587 151.617 11.1633V10.5387H153.54V11.1633C153.54 11.9484 153.409 12.6189 153.145 13.1748C152.882 13.7364 152.493 14.1605 151.989 14.4527C151.485 14.745 150.866 14.894 150.151 14.894C149.441 14.894 148.834 14.745 148.324 14.4527Z" fill="#D57E2A"/>
<path d="M155.344 0.148994H157.251V14.745H155.344V0.148994ZM156.547 12.9398H158.946C159.375 12.9398 159.707 12.8309 159.942 12.6189C160.177 12.4069 160.297 12.1032 160.297 11.7077V9.79943C160.297 9.43266 160.24 9.11748 160.114 8.85387C159.994 8.59026 159.828 8.39541 159.61 8.25788C159.392 8.12034 159.135 8.05157 158.843 8.05157H156.547V6.24642H158.843C159.243 6.24642 159.553 6.10888 159.776 5.83381C159.999 5.55874 160.108 5.16905 160.108 4.67048V3.18051C160.108 2.79083 159.999 2.49283 159.776 2.27507C159.553 2.06303 159.249 1.95415 158.866 1.95415H156.547V0.148994H158.831C159.501 0.148994 160.074 0.263608 160.549 0.492834C161.024 0.72206 161.391 1.05444 161.637 1.48997C161.883 1.93123 162.009 2.45272 162.009 3.07163V4.61891C162.009 5.07163 161.935 5.47851 161.786 5.83381C161.637 6.18911 161.425 6.48137 161.15 6.70487C160.875 6.93409 160.538 7.08882 160.154 7.16905C160.583 7.23782 160.95 7.38682 161.259 7.62177C161.568 7.85673 161.803 8.16046 161.963 8.52722C162.124 8.89971 162.204 9.32951 162.204 9.82808V11.7536C162.204 12.3897 162.084 12.9284 161.843 13.3754C161.603 13.8223 161.248 14.1605 160.784 14.3954C160.32 14.6304 159.759 14.745 159.106 14.745H156.547V12.9398Z" fill="#D57E2A"/>
<path d="M163.956 0.148994H165.863V14.745H163.956V0.148994ZM164.952 0.148994H170.22V1.95415H164.952V0.148994ZM164.952 6.59599H169.716V8.40114H164.952V6.59599ZM164.952 12.9398H170.22V14.745H164.952V12.9398Z" fill="#D57E2A"/>
<path d="M171.72 0.148994H173.627V14.745H171.72V0.148994ZM172.991 12.9398H179.479V14.745H172.991V12.9398ZM175.127 0.148994H177.034V14.745H175.127V0.148994ZM178.54 0.148994H180.447V14.745H178.54V0.148994ZM180.006 12.9398H181.901V17.765H180.006V12.9398Z" fill="#D57E2A"/>
<path d="M183.201 0.148994H185.107V14.745H183.201V0.148994ZM184.197 0.148994H189.465V1.95415H184.197V0.148994ZM184.197 6.59599H188.961V8.40114H184.197V6.59599ZM184.197 12.9398H189.465V14.745H184.197V12.9398Z" fill="#D57E2A"/>
<path d="M190.965 0.148994H192.878V14.745H190.965V0.148994ZM192.236 6.65329H196.708V8.45845H192.236V6.65329ZM195.781 0.148994H197.687V14.745H195.781V0.148994Z" fill="#D57E2A"/>
<path d="M205.016 14.7335V4.06304L205.257 4.32665L201.277 14.7335H199.691V0.148995H201.529V10.8883L201.289 10.6246L205.291 0.143265H206.854V14.7278H205.016V14.7335Z" fill="#D57E2A"/>
<path d="M208.859 0.148994H210.765V14.745H208.859V0.148994ZM209.849 0.148994H215.117V1.95415H209.849V0.148994ZM209.849 6.59599H214.613V8.40114H209.849V6.59599ZM209.849 12.9398H215.117V14.745H209.849V12.9398Z" fill="#D57E2A"/>
<path d="M216.297 12.8367H218.203V14.745H216.297V12.8367Z" fill="#D57E2A"/>
<path d="M224.462 14.4527C223.952 14.1605 223.568 13.7307 223.299 13.1748C223.03 12.6189 222.898 11.9427 222.898 11.1633V3.74212C222.898 2.95129 223.03 2.2808 223.299 1.7192C223.568 1.16332 223.952 0.733524 224.456 0.441261C224.96 0.148997 225.573 0 226.288 0C227.004 0 227.617 0.148997 228.126 0.441261C228.636 0.733524 229.019 1.16332 229.283 1.7192C229.546 2.2808 229.678 2.95129 229.678 3.73066V4.3553H227.754V3.73639C227.754 3.34097 227.697 3.00286 227.582 2.72206C227.468 2.44126 227.302 2.22923 227.078 2.08023C226.861 1.93123 226.592 1.85673 226.288 1.85673C225.979 1.85673 225.716 1.93123 225.498 2.08023C225.28 2.22923 225.114 2.44126 224.994 2.72206C224.88 3.00286 224.817 3.3467 224.817 3.74785V11.1633C224.817 11.5587 224.874 11.8968 224.994 12.1776C225.109 12.4585 225.28 12.6705 225.498 12.8195C225.716 12.9685 225.979 13.043 226.288 13.043C226.597 13.043 226.861 12.9685 227.078 12.8195C227.302 12.6705 227.468 12.4585 227.582 12.1776C227.697 11.8968 227.754 11.5587 227.754 11.1633V10.5387H229.678V11.1633C229.678 11.9484 229.546 12.6189 229.283 13.1748C229.019 13.7364 228.63 14.1605 228.126 14.4527C227.617 14.745 227.004 14.894 226.288 14.894C225.578 14.894 224.971 14.745 224.462 14.4527Z" fill="#D57E2A"/>
<path d="M233.148 14.4642C232.604 14.1776 232.192 13.7593 231.911 13.2092C231.625 12.659 231.487 12 231.487 11.2321V3.66189C231.487 2.88825 231.631 2.2235 231.911 1.67335C232.197 1.12321 232.61 0.710602 233.148 0.424069C233.692 0.137536 234.339 0 235.106 0C235.873 0 236.52 0.143266 237.064 0.424069C237.608 0.710602 238.021 1.12321 238.301 1.67335C238.582 2.2235 238.731 2.88252 238.731 3.66189V11.2321C238.731 12 238.588 12.659 238.301 13.2092C238.015 13.7593 237.603 14.1776 237.064 14.4642C236.52 14.7507 235.873 14.894 235.106 14.894C234.339 14.894 233.686 14.7507 233.148 14.4642ZM236.028 12.8309C236.286 12.6934 236.48 12.4928 236.612 12.235C236.744 11.9713 236.812 11.6619 236.812 11.2894V3.60458C236.812 3.23782 236.744 2.92264 236.612 2.65903C236.48 2.39542 236.28 2.20057 236.028 2.06304C235.776 1.9255 235.461 1.85673 235.1 1.85673C234.74 1.85673 234.43 1.9255 234.173 2.06304C233.915 2.20057 233.72 2.40115 233.589 2.65903C233.457 2.92264 233.388 3.23209 233.388 3.60458V11.2894C233.388 11.6562 233.457 11.9713 233.589 12.235C233.72 12.4986 233.921 12.6934 234.173 12.8309C234.425 12.9685 234.74 13.0372 235.1 13.0372C235.461 13.0372 235.77 12.9685 236.028 12.8309Z" fill="#D57E2A"/>
<path d="M242.258 14.4814C241.691 14.2063 241.261 13.8109 240.969 13.2894C240.677 12.7679 240.529 12.1375 240.529 11.404V10.6017H242.435V11.3123C242.435 11.8797 242.596 12.3209 242.922 12.6246C243.248 12.9341 243.706 13.0888 244.302 13.0888C244.863 13.0888 245.298 12.9226 245.613 12.5845C245.928 12.2464 246.077 11.7765 246.077 11.1691V9.60459C246.077 9.11175 245.974 8.72779 245.768 8.45845C245.562 8.18911 245.264 8.05731 244.886 8.05731H242.767V6.25215H244.886C245.189 6.25215 245.419 6.14327 245.59 5.93123C245.756 5.7192 245.842 5.41547 245.842 5.02579V3.47278C245.842 2.94556 245.711 2.53295 245.441 2.24069C245.172 1.94842 244.794 1.80516 244.296 1.80516C243.781 1.80516 243.386 1.95415 243.105 2.24642C242.825 2.53868 242.682 2.95129 242.682 3.47851V4.18911H240.775V3.48997C240.775 2.75645 240.918 2.12607 241.198 1.60458C241.485 1.08309 241.897 0.681948 242.435 0.412607C242.979 0.137536 243.626 0 244.394 0C245.104 0 245.705 0.137536 246.203 0.412607C246.701 0.687679 247.085 1.08883 247.348 1.61032C247.612 2.13754 247.743 2.76791 247.743 3.50143V5.04871C247.743 5.40401 247.634 5.75931 247.411 6.12034C247.194 6.48138 246.879 6.81375 246.478 7.12321C246.953 7.31805 247.32 7.63324 247.589 8.06877C247.852 8.5043 247.984 9.01433 247.984 9.60459V11.1691C247.984 11.9542 247.841 12.6246 247.554 13.1805C247.268 13.7421 246.85 14.1662 246.295 14.4527C245.745 14.745 245.081 14.8883 244.302 14.8883C243.5 14.894 242.825 14.7564 242.258 14.4814Z" fill="#D57E2A"/>
<path d="M254.757 14.7335V4.06304L254.998 4.32665L251.018 14.7335H249.432V0.148995H251.27V10.8883L251.03 10.6246L255.032 0.143265H256.595V14.7278H254.757V14.7335Z" fill="#D57E2A"/>
<path d="M257.695 12.9398H266.072V14.745H257.695V12.9398ZM257.695 12.9398H259.602V17.765H257.695V12.9398ZM257.975 12.9398H258.216C258.657 12.9398 259 12.6991 259.241 12.2235C259.487 11.7478 259.607 11.0716 259.607 10.2006V0.148994H261.514V10.3782C261.514 11.1691 261.394 11.8453 261.148 12.4126C260.901 12.9799 260.552 13.4097 260.088 13.702C259.625 13.9943 259.069 14.1433 258.416 14.1433H257.975V12.9398ZM260.884 0.148994H264.663V1.95415H260.884V0.148994ZM263.925 0.148994H265.831V14.745H263.925V0.148994ZM265.379 12.9398H267.286V17.765H265.379V12.9398Z" fill="#D57E2A"/>
<path d="M271.254 0.148994H273L276.367 14.745H274.323L272.13 3.1404L269.931 14.745H267.887L271.254 0.148994ZM270.04 9.76504H274.363V11.5645H270.04V9.76504Z" fill="#D57E2A"/>
<path d="M277.673 0.148994H279.585V14.745H277.673V0.148994ZM278.95 6.65329H283.421V8.45845H278.95V6.65329ZM282.488 0.148994H284.395V14.745H282.488V0.148994Z" fill="#D57E2A"/>
<path d="M291.724 14.7335V4.06304L291.965 4.32665L287.985 14.7335H286.399V0.148995H288.237V10.8883L287.996 10.6246L291.999 0.143265H293.562V14.7278H291.724V14.7335Z" fill="#D57E2A"/>
<path d="M295.566 0.148994H297.473V14.745H295.566V0.148994ZM296.557 0.148994H301.825V1.95415H296.557V0.148994ZM296.557 6.59599H301.321V8.40114H296.557V6.59599ZM296.557 12.9398H301.825V14.745H296.557V12.9398Z" fill="#D57E2A"/>
<path d="M73.16 85.255H75.0668V99.851H73.16V85.255ZM74.4312 85.255H78.9146V87.0602H74.4312V85.255ZM77.9698 85.255H79.8765V99.851H77.9698V85.255Z" fill="#D57E2A"/>
<path d="M81.8806 85.255H83.7873V99.851H81.8806V85.255ZM82.8769 85.255H88.1448V87.0602H82.8769V85.255ZM82.8769 91.6963H87.6409V93.5014H82.8769V91.6963ZM82.8769 98.0401H88.1448V99.8453H82.8769V98.0401Z" fill="#D57E2A"/>
<path d="M89.6449 85.255H91.5517V99.851H89.6449V85.255ZM90.6985 92.3782H93.4584C93.7218 92.3782 93.9451 92.3152 94.134 92.1948C94.323 92.0745 94.4719 91.9026 94.5692 91.6734C94.6723 91.4441 94.7181 91.1748 94.7181 90.8596V88.6189C94.7181 88.2923 94.6666 88.0115 94.5692 87.7765C94.4719 87.5415 94.323 87.3639 94.134 87.2378C93.9451 87.1117 93.7161 87.0544 93.4584 87.0544H90.6985V85.2493H93.4183C94.1054 85.2493 94.6952 85.3811 95.1762 85.639C95.6629 85.9026 96.0293 86.2808 96.287 86.7851C96.5389 87.2894 96.6706 87.8911 96.6706 88.5903V90.9112C96.6706 91.5989 96.5389 92.1891 96.287 92.6762C96.0293 93.1633 95.6571 93.5358 95.1762 93.7937C94.6895 94.0516 94.1054 94.1776 93.424 94.1776H90.7042V92.3782H90.6985Z" fill="#D57E2A"/>
<path d="M98.6232 85.255H100.53V99.851H98.6232V85.255ZM99.8256 98.0401H102.225C102.654 98.0401 102.986 97.9312 103.221 97.7192C103.456 97.5072 103.576 97.2034 103.576 96.808V94.8997C103.576 94.533 103.519 94.2178 103.393 93.9542C103.273 93.6905 103.107 93.4957 102.889 93.3582C102.671 93.2206 102.414 93.1519 102.122 93.1519H99.8256V91.3467H102.122C102.523 91.3467 102.832 91.2092 103.055 90.9341C103.278 90.659 103.387 90.2693 103.387 89.7708V88.2865C103.387 87.8968 103.278 87.5988 103.055 87.3811C102.832 87.169 102.528 87.0602 102.145 87.0602H99.8256V85.255H102.11C102.78 85.255 103.353 85.3696 103.828 85.5988C104.303 85.8281 104.67 86.1605 104.916 86.596C105.162 87.0372 105.288 87.5587 105.288 88.1776V89.7249C105.288 90.1777 105.214 90.5845 105.065 90.9398C104.916 91.2951 104.704 91.5874 104.429 91.8109C104.154 92.0401 103.817 92.1948 103.433 92.2751C103.862 92.3438 104.229 92.4928 104.538 92.7278C104.847 92.9627 105.082 93.2665 105.242 93.6332C105.403 94.0057 105.483 94.4355 105.483 94.9341V96.8596C105.483 97.4957 105.363 98.0344 105.122 98.4814C104.882 98.9284 104.527 99.2665 104.063 99.5014C103.599 99.7364 103.038 99.851 102.385 99.851H99.8256V98.0401Z" fill="#D57E2A"/>
<path d="M107.235 85.255H109.142V99.851H107.235V85.255ZM108.289 98.0401H110.837C111.1 98.0401 111.323 97.9828 111.512 97.8625C111.701 97.7421 111.85 97.5702 111.947 97.341C112.05 97.1117 112.096 96.8424 112.096 96.5272V94.4871C112.096 94.1605 112.045 93.8797 111.947 93.6447C111.844 93.4097 111.701 93.2321 111.512 93.106C111.323 92.9799 111.094 92.9226 110.837 92.9226H108.289V91.1175H110.756C111.443 91.1175 112.033 91.2493 112.514 91.5072C113.001 91.7708 113.367 92.149 113.625 92.6533C113.877 93.1576 114.009 93.7593 114.009 94.4585V96.5788C114.009 97.2665 113.883 97.8567 113.625 98.3438C113.367 98.8309 112.995 99.2034 112.514 99.4613C112.028 99.7192 111.444 99.8453 110.762 99.8453H108.294V98.0401H108.289ZM116.843 99.8453H114.936V85.2493H116.843V99.8453Z" fill="#D57E2A"/>
<path d="M124.155 99.8338V89.1691L124.396 89.4327L120.416 99.8395H118.83V85.255H120.668V95.9943L120.427 95.7307L124.43 85.2493H125.993V99.8338H124.155ZM125.088 81.1461C125.088 82.1146 124.859 82.8711 124.396 83.404C123.932 83.937 123.285 84.2063 122.449 84.2063H122.369C121.533 84.2063 120.886 83.937 120.422 83.404C119.958 82.8711 119.729 82.1146 119.729 81.1461L121.384 81.1691C121.384 81.6562 121.47 82.0344 121.641 82.3095C121.813 82.5788 122.054 82.7163 122.369 82.7163H122.449C122.764 82.7163 123.004 82.5788 123.176 82.3095C123.348 82.0401 123.434 81.6562 123.434 81.1691L125.088 81.1461Z" fill="#D57E2A"/>
<path d="M136.328 99.8338V89.1691L136.569 89.4327L132.589 99.8395H131.003V85.255H132.841V95.9943L132.601 95.7307L136.603 85.2493H138.166V99.8338H136.328Z" fill="#D57E2A"/>
<path d="M141.734 99.553C141.224 99.2607 140.84 98.8309 140.571 98.2751C140.302 97.7192 140.17 97.043 140.17 96.2636V88.8481C140.17 88.0573 140.302 87.3868 140.571 86.8252C140.84 86.2693 141.224 85.8395 141.728 85.5473C142.232 85.255 142.844 85.106 143.56 85.106C144.276 85.106 144.889 85.255 145.398 85.5473C145.908 85.8395 146.291 86.2693 146.555 86.8252C146.818 87.3868 146.95 88.0573 146.95 88.8367V89.4613H145.026V88.8367C145.026 88.4413 144.969 88.1032 144.854 87.8224C144.74 87.5416 144.574 87.3295 144.35 87.1805C144.127 87.0315 143.864 86.957 143.56 86.957C143.257 86.957 142.988 87.0315 142.77 87.1805C142.552 87.3295 142.386 87.5416 142.266 87.8224C142.152 88.1032 142.089 88.447 142.089 88.8481V96.2636C142.089 96.659 142.146 96.9971 142.266 97.2779C142.381 97.5587 142.552 97.7708 142.77 97.9198C142.988 98.0688 143.251 98.1433 143.56 98.1433C143.869 98.1433 144.133 98.0688 144.35 97.9198C144.568 97.7708 144.74 97.5587 144.854 97.2779C144.969 96.9971 145.026 96.659 145.026 96.2636V95.639H146.95V96.2636C146.95 97.0487 146.818 97.7192 146.555 98.2751C146.291 98.8367 145.902 99.2607 145.398 99.553C144.894 99.8453 144.276 99.9943 143.56 99.9943C142.85 100 142.243 99.851 141.734 99.553Z" fill="#D57E2A"/>
<path d="M148.553 98.0573H148.57C148.799 98.0573 148.994 98 149.154 97.8797C149.32 97.765 149.441 97.5931 149.532 97.3696C149.624 97.1461 149.664 96.8768 149.664 96.5616V85.2493H151.571V96.682C151.571 97.3467 151.462 97.914 151.239 98.3897C151.015 98.8653 150.7 99.2264 150.282 99.4728C149.864 99.7192 149.361 99.8453 148.771 99.8453H148.547V98.0573H148.553ZM150.941 85.255H154.714V87.0602H150.941V85.255ZM153.781 85.255H155.688V99.851H153.781V85.255Z" fill="#D57E2A"/>
<path d="M160.36 85.255H162.106L165.473 99.851H163.429L161.23 88.2464L159.032 99.851H156.988L160.36 85.255ZM159.146 94.8653H163.469V96.6648H159.146V94.8653Z" fill="#D57E2A"/>
<path d="M174.492 85.255H176.164V99.851H174.417V88.8023L174.589 89.4441L172.081 97.4613H170.856L168.359 89.6447L168.588 88.8023V99.851H166.773V85.255H168.519L171.468 94.4183L174.492 85.255Z" fill="#D57E2A"/>
<path d="M179.731 99.553C179.221 99.2607 178.837 98.8309 178.568 98.2751C178.299 97.7192 178.168 97.043 178.168 96.2636V88.8481C178.168 88.0573 178.299 87.3868 178.568 86.8252C178.837 86.2693 179.221 85.8395 179.725 85.5473C180.229 85.255 180.842 85.106 181.557 85.106C182.273 85.106 182.886 85.255 183.395 85.5473C183.905 85.8395 184.289 86.2693 184.552 86.8252C184.815 87.3868 184.947 88.0573 184.947 88.8367V89.4613H183.023V88.8367C183.023 88.4413 182.966 88.1032 182.851 87.8224C182.737 87.5416 182.571 87.3295 182.347 87.1805C182.13 87.0315 181.861 86.957 181.557 86.957C181.248 86.957 180.985 87.0315 180.767 87.1805C180.55 87.3295 180.384 87.5416 180.263 87.8224C180.149 88.1032 180.086 88.447 180.086 88.8481V96.2636C180.086 96.659 180.143 96.9971 180.263 97.2779C180.378 97.5587 180.55 97.7708 180.767 97.9198C180.985 98.0688 181.248 98.1433 181.557 98.1433C181.867 98.1433 182.13 98.0688 182.347 97.9198C182.571 97.7708 182.737 97.5587 182.851 97.2779C182.966 96.9971 183.023 96.659 183.023 96.2636V95.639H184.947V96.2636C184.947 97.0487 184.815 97.7192 184.552 98.2751C184.289 98.8367 183.899 99.2607 183.395 99.553C182.886 99.8453 182.273 99.9943 181.557 99.9943C180.847 100 180.24 99.851 179.731 99.553Z" fill="#D57E2A"/>
<path d="M186.756 85.255H188.663V99.851H186.756V85.255ZM187.747 91.6963H191.658V93.5014H187.747V91.6963ZM189.952 93.3524L191.646 92.3668L194.767 99.8453H192.729L189.952 93.3524ZM190.066 91.9083L192.19 85.255H194.154L191.297 93.5645L190.066 91.9083Z" fill="#D57E2A"/>
<path d="M200.997 99.8338V89.1691L201.237 89.4327L197.258 99.8395H195.672V85.255H197.51V95.9943L197.269 95.7307L201.272 85.2493H202.835V99.8338H200.997Z" fill="#D57E2A"/>
<path d="M210.164 99.8338V89.1691L210.405 89.4327L206.425 99.8395H204.839V85.255H206.677V95.9943L206.436 95.7307L210.439 85.2493H212.002V99.8338H210.164ZM211.092 81.1461C211.092 82.1146 210.863 82.8711 210.399 83.404C209.935 83.937 209.288 84.2063 208.452 84.2063H208.372C207.536 84.2063 206.889 83.937 206.425 83.404C205.961 82.8711 205.732 82.1146 205.732 81.1461L207.387 81.1691C207.387 81.6562 207.473 82.0344 207.645 82.3095C207.816 82.5788 208.057 82.7163 208.372 82.7163H208.452C208.767 82.7163 209.007 82.5788 209.179 82.3095C209.351 82.0401 209.437 81.6562 209.437 81.1691L211.092 81.1461Z" fill="#D57E2A"/>
<path d="M219.326 92.3668L221.02 93.3524L217.94 99.8453H215.907L219.326 92.3668ZM216.52 85.255H218.484L220.912 91.9083L219.681 93.5645L216.52 85.255ZM219.32 91.6963H226.443V93.5014H219.32V91.6963ZM221.925 85.255H223.832V99.851H221.925V85.255ZM224.731 93.3524L226.426 92.3668L229.844 99.8453H227.811L224.731 93.3524ZM224.845 91.9083L227.273 85.255H229.237L226.076 93.5645L224.845 91.9083Z" fill="#D57E2A"/>
<path d="M230.251 85.255H232.278L234.356 96.2063L233.131 97.8395L230.251 85.255ZM235.215 97.3295C235.083 97.9255 234.883 98.4183 234.619 98.8137C234.356 99.2092 234.018 99.5072 233.612 99.702C233.205 99.8968 232.724 100 232.169 100H231.275V98.0917H232.169C232.438 98.0917 232.673 98.0344 232.879 97.914C233.085 97.7994 233.262 97.6218 233.406 97.3925C233.549 97.1633 233.657 96.8768 233.72 96.533L236.045 85.2493H237.969L235.215 97.3295Z" fill="#D57E2A"/>
<path d="M238.822 85.255H240.729V99.851H238.822V85.255ZM239.876 92.3782H242.636C242.899 92.3782 243.122 92.3152 243.311 92.1948C243.5 92.0745 243.649 91.9026 243.747 91.6734C243.844 91.4441 243.895 91.1748 243.895 90.8596V88.6189C243.895 88.2923 243.844 88.0115 243.747 87.7765C243.643 87.5415 243.5 87.3639 243.311 87.2378C243.122 87.1117 242.893 87.0544 242.636 87.0544H239.876V85.2493H242.596C243.283 85.2493 243.872 85.3811 244.353 85.639C244.84 85.9026 245.207 86.2808 245.464 86.7851C245.716 87.2894 245.848 87.8911 245.848 88.5903V90.9112C245.848 91.5989 245.722 92.1891 245.464 92.6762C245.207 93.1633 244.834 93.5358 244.353 93.7937C243.867 94.0516 243.283 94.1776 242.601 94.1776H239.882V92.3782H239.876Z" fill="#D57E2A"/>
<path d="M247.801 85.255H249.713V99.851H247.801V85.255ZM249.072 91.7593H253.544V93.5645H249.072V91.7593ZM252.616 85.255H254.523V99.851H252.616V85.255Z" fill="#D57E2A"/>
<path d="M259.189 85.255H260.936L264.303 99.851H262.258L260.065 88.2464L257.867 99.851H255.823L259.189 85.255ZM257.981 94.8653H262.304V96.6648H257.981V94.8653Z" fill="#D57E2A"/>
<path d="M265.711 98.0573H265.734C265.963 98.0573 266.158 98 266.318 97.8797C266.484 97.765 266.604 97.5931 266.696 97.3696C266.782 97.1461 266.828 96.8768 266.828 96.5616V85.2493H268.734V96.682C268.734 97.3467 268.626 97.914 268.402 98.3897C268.185 98.8653 267.864 99.2264 267.446 99.4728C267.028 99.7192 266.524 99.8453 265.934 99.8453H265.717V98.0573H265.711ZM268.099 85.255H271.872V87.0602H268.099V85.255ZM270.933 85.255H272.84V99.851H270.933V85.255Z" fill="#D57E2A"/>
</svg>
