<?xml version="1.0"?>
<svg xmlns="http://www.w3.org/2000/svg" xmlns:xlink="http://www.w3.org/1999/xlink" version="1.1" id="Capa_1" x="0px" y="0px" viewBox="0 0 480 480" style="enable-background:new 0 0 480 480;" xml:space="preserve" width="34px" height="34px" class=""><g><g>
	<g>
		<g>
			<path d="M416.992,69.816l-62.64-62.768c-4.513-4.497-10.62-7.03-16.992-7.048H80C66.745,0,56,10.745,56,24v432     c0,13.255,10.745,24,24,24h320c13.255,0,24-10.745,24-24V86.768C424.014,80.41,421.492,74.308,416.992,69.816z M408,456     c0,4.418-3.582,8-8,8H80c-4.418,0-8-3.582-8-8V24c0-4.418,3.582-8,8-8h256v56c0,13.255,10.745,24,24,24h32V80h-32     c-4.418,0-8-3.582-8-8V27.344l53.664,53.768c1.497,1.501,2.338,3.536,2.336,5.656V456z" data-original="#000000" class="active-path" data-old_color="#000000" fill="#D7D7FF"/>
			<rect x="104" y="48" width="16" height="16" data-original="#000000" class="active-path" data-old_color="#000000" fill="#D7D7FF"/>
			<rect x="136" y="48" width="160" height="16" data-original="#000000" class="active-path" data-old_color="#000000" fill="#D7D7FF"/>
			<rect x="104" y="80" width="192" height="16" data-original="#000000" class="active-path" data-old_color="#000000" fill="#D7D7FF"/>
			<path d="M144,144c-35.346,0-64,28.654-64,64c0,35.346,28.654,64,64,64c35.346,0,64-28.654,64-64     C207.96,172.67,179.33,144.04,144,144z M144,256c-26.509-0.154-47.875-21.768-47.721-48.277     c0.134-23.211,16.858-43,39.721-47.003V208c0,4.418,3.582,8,8,8h47.28C187.361,239.066,167.397,255.957,144,256z M152,200v-39.28     c20.1,3.435,35.845,19.18,39.28,39.28H152z" data-original="#000000" class="active-path" data-old_color="#000000" fill="#D7D7FF"/>
			<path d="M392,272h-32c-4.418,0-8,3.582-8,8v88h-8v-56c0-4.418-3.582-8-8-8h-32c-4.418,0-8,3.582-8,8v56h-8v-40     c0-4.418-3.582-8-8-8h-32c-4.418,0-8,3.582-8,8v40h-8V248h-16v128c0,4.418,3.582,8,8,8h176V280C400,275.582,396.418,272,392,272z      M272,368h-16v-32h16V368z M328,368h-16v-48h16V368z M384,368h-16v-80h16V368z" data-original="#000000" class="active-path" data-old_color="#000000" fill="#D7D7FF"/>
			<rect x="248" y="168" width="96" height="16" data-original="#000000" class="active-path" data-old_color="#000000" fill="#D7D7FF"/>
			<rect x="248" y="200" width="32" height="16" data-original="#000000" class="active-path" data-old_color="#000000" fill="#D7D7FF"/>
			<rect x="296" y="200" width="48" height="16" data-original="#000000" class="active-path" data-old_color="#000000" fill="#D7D7FF"/>
			<rect x="112" y="296" width="64" height="16" data-original="#000000" class="active-path" data-old_color="#000000" fill="#D7D7FF"/>
			<rect x="112" y="328" width="64" height="16" data-original="#000000" class="active-path" data-old_color="#000000" fill="#D7D7FF"/>
		</g>
	</g>
</g></g> </svg>
